<svg version="1.1" id="b" xmlns="http://www.w3.org/2000/svg" xmlns:xlink="http://www.w3.org/1999/xlink" x="0px" y="0px"
	 viewBox="0 0 391.6 435.8" style="enable-background:new 0 0 391.6 435.8;" xml:space="preserve">
<g>
	<path d="M0,0h245.3c119.5,0,143.2,72.2,143.2,117.7c0,53.5-39.2,87.8-69.1,97.7c25.5,6.2,72.2,36.1,72.2,100.2
		c0,45.5-23,120.2-142.6,120.2H0L0,0L0,0z M184.9,165.6c29.9,0,44.8-14.9,44.8-37.4c0-15.6-8.1-34.9-44.8-34.9h-26.1v72.2h26.1
		V165.6z M158.8,260.2v71.6h26.1c29.9,0,44.8-14.9,44.8-36.7c0-15.6-8.1-34.9-44.8-34.9H158.8z"/>
</g>
</svg>
