<svg version="1.1" id="s" xmlns="http://www.w3.org/2000/svg" xmlns:xlink="http://www.w3.org/1999/xlink" x="0px" y="0px"
	 viewBox="0 0 386 460.8" style="enable-background:new 0 0 386 460.8;" xml:space="preserve">
<g>
	<path d="M158.8,299.5c0,29.9,14.9,47.9,39.8,47.9c18.7,0,28.6-9.3,28.6-23.7c0-14.9-10.6-22.4-64.8-44.2
		C81.5,247.1,6.7,219.7,6.7,129.5C6.7,31.8,103.2,0,197.2,0c152.5,0,186.2,82.8,186.2,144.4H224.8c0-31.1-8.1-44.8-31.8-44.8
		c-14.3,0-27.4,6.8-27.4,23.7c0,15.6,14.3,27.4,58.5,43C303.2,193.7,386,221.7,386,315.7c0,90.3-67.2,145.1-192.4,145.1
		C70.3,460.8,0,403.5,0,299.5H158.8z"/>
</g>
</svg>
